<?xml version="1.0" encoding="UTF-8"?>
<svg id="Layer_2" data-name="Layer 2" xmlns="http://www.w3.org/2000/svg" xmlns:xlink="http://www.w3.org/1999/xlink" viewBox="0 0 281.19 272.17">
  <defs>
    <style>
      .cls-1 {
        fill: #fff;
      }

      .cls-2 {
        fill: #1d233b;
      }

      .cls-3 {
        fill: #63b2e5;
      }

      .cls-4 {
        fill: #1f6fb5;
      }

      .cls-5 {
        fill: #d3d6db;
      }

      .cls-6 {
        fill: #53668d;
      }

      .cls-7 {
        fill: url(#New_Gradient_Swatch_copy-2);
      }

      .cls-8 {
        fill: none;
      }

      .cls-9 {
        fill: url(#New_Gradient_Swatch_copy);
      }

      .cls-10 {
        fill: #fcfcfc;
      }
    </style>
    <linearGradient id="New_Gradient_Swatch_copy" data-name="New Gradient Swatch copy" x1="51.35" y1="159.88" x2="113.02" y2="180.95" gradientUnits="userSpaceOnUse">
      <stop offset="0" stop-color="#fcee21"/>
      <stop offset="1" stop-color="#f15a24"/>
    </linearGradient>
    <linearGradient id="New_Gradient_Swatch_copy-2" data-name="New Gradient Swatch copy" x1="239.02" y1="156.08" x2="164.67" y2="182.12" xlink:href="#New_Gradient_Swatch_copy"/>
  </defs>
  <g id="Layer_2-2" data-name="Layer 2">
    <g>
      <path class="cls-2" d="m269.63,111.86c-.17-.39-.37-.77-.56-1.14.19.39.37.76.56,1.14Zm-1.03-.8c-.82-20.9-.04-56.99-1.4-77.41-.47-9.11-2.31-17.98-5.54-26.5-3.29-8.7-5.06-9.09-12.04-3.14-19.21,15.49-46.24,41.35-66.25,55.82-21.86-7.5-58.68-8.74-77.99-1.74-5.49,2.07-9.61,2.19-14.47-1.94C71.87,39.36,47.83,19.87,28.46,2.91,4.55-14.37,12.79,100.18,11.35,112.46c-.06-.05-.12-.09-.19-.11.68,14.78.11,29.85.73,44.59-.13,13.34-4.97,25.56-11.89,36.74,0,0,6.73,23.05,19.86,41.96,0,0,0,0,0,.02,2.73,3.36,5.28,7.36,8.42,10.4,0,0,.02,0,.02,0,.65.4,1.37.99,2.26,1.81,0,0,.02,0,.02,0,20.24,18.86,49.88,15.74,75.44,17.81.09-.39.2-.8.28-1.19-11.04-1.42-22.07-2.86-33.1-4.29-12.46-.24-24.24-2.01-31.53-13.93-6.54-6.08-6.52-6.01,1.45-9.71,9.43-4.59,19.36-7.91,29.25-11.24,1.88-1.05.73-3.13-1.55-1.99-11.85,2.84-23.13,7.93-34.02,13.33-4.89,2.25-5.77-4.88-8.74-7.09,24.4-10.12,49.5-16.57,76.15-17.88-12.63-7.56-60.1,8.33-74.18,14.43-2.59,1.08-4.19.85-5.76-1.69-14.95-20.54-9.09-27.23,6.28-37.01-3.05-1.38-6.26-2.63-9.12-4.42h0c-9.54-4.99-.93-10.73,3.72-15.53,1.41-1.04,1.22-1.84.47-3.23-10.46-20.95,7.74-27.24,4.78-33.18-3.72-12.32-5.73-25.09-6.63-37.91-1.56-22.67.33-45.39,2.34-67.97,19.12,20.85,34.39,44.83,49.85,67.95,3.95-7.2,8.77-13.76,14.66-19.5-.37-.75-1.16-1.01-1.91-.7-6.6,1.87-12.98.57-18.38-4.04-16.11-15.22-32.31-31.12-42.73-50.92,16.75,14.63,33.08,29.26,50.55,43.02,4.35,3.76,9.24,6.97,15.16,6.97.99.05,2.16-.33,2.73.96,44.04-23.38,40.86-4.18,44,33.84,2.59-35.53.45-58.17,43.53-33.88.73-1.4,2.08-.95,3.16-.89,4.78.23,8.66-1.82,12.21-4.67,17.85-13.63,33.94-30.05,51.58-43.58.04-.59.32-1.2.92-1.4,0-.02,0-.04,0-.06.02-.02.06-.04.08-.06.01-.05.04-.11.07-.13.06-.08.14-.11.24-.1-.16.1-.3.21-.39.36-9.57,16.25-23.34,30.99-36.52,44.8-6.35,7.41-15.28,12.23-25.2,10.6,4.98,5.98,9.71,12.15,13.67,19.15,8.9-13.85,18.04-27.5,27.77-40.72h0c6.89-9.38,13.98-18.37,21.6-27.3,2.92,21.55,4.31,43.43,2.94,65.18-.78,12.49-2.48,24.9-5.31,37.09-2.39,6.13,2.05,10.59,4.61,15.82,4.14,7.35.86,15.74-1.51,22.51,1.11,3.17,5.78,4.38,7.23,7.65t0,0c4.41,7.22-5.69,11.51-10.97,13.98-.02.32-.06.62-.08.94,7.87,4.11,17.55,10.32,15.27,19.17-1.64,6.7-6.08,12.21-9.9,17.86-1.39,2.2-2.88,1.2-4.39.63-14.73-5.22-60.74-21.94-75.23-13.82,26.73.76,51.7,7.87,76.22,16.93.88.37.64.72-.03,1.05-1.06,1.24-1.89,2.87-2.86,4.24-2.83,5-7.63,1.17-11.13-.71-1.77-.65-6.3-2.67-11.34-4.74-6.92-2.34-14.08-6.59-18.91-4.88-.3,1.26,1.44,1.67,2.45,2.04,11.79,4.02,23.1,8.24,34.52,13.48-8.58,11.97-20.68,21.58-36.05,21.13-11.59.4-23.02,2.8-34.52,4.1-.15.02-.31.04-.47.06.07.38.17.74.24,1.1,35.55-3.27,61.01,3.11,87.3-30.65,0,0,0,0,0-.02,1.1-1.47,2.26-2.79,3.33-4.34,7.21-10.87,13.02-22.94,16.69-35.6.1-.41.2-.83.29-1.24,0,0-23.36-19.77-12.59-82.79Z"/>
      <path class="cls-3" d="m42.22,218.57c-.15.28-.39.49,0,.7.09-.16.18-.31.25-.43-.09-.1-.17-.19-.24-.27Zm59.57-14.34c-3.21-.35-7.13-.38-11.44-.12-.05,0-.09,0-.13,0-6.51.41-13.89,1.48-20.95,3.16-.02,0-.05.02-.07.02-8.06,1.91-15.73,4.59-21.28,7.92-.09.04-.17.09-.25.13-.73.51-1.55.92-2.17,1.47-.81.59-1.55,1.2-2.23,1.82.78.48,1.38.15,1.93-.43,2.82-1.17,5.67-2.23,8.54-3.22.44-.15.89-.3,1.33-.44.38-.13.76-.25,1.14-.37,6.81-2.23,13.74-3.97,20.75-5.37,1.05-.21,2.11-.42,3.16-.62.59-.11,1.19-.22,1.78-.32,1.2-.21,2.39-.42,3.59-.62,4.8-.77,9.61-1.41,14.44-1.95.61-.07,1.21-.13,1.81-.2,1.63.77,1.29-2.23.03-.88Zm32.68-31.7c-.06-.05-.12-.09-.19-.13-.05-.04-.1-.06-.17-.09-.06-.02-.12-.05-.19-.07-.06-.02-.13-.05-.21-.06-.07-.02-.15-.04-.23-.06-.06-.02-.11-.02-.17-.03-.14-.02-.29-.05-.45-.06-.85-.09-1.94-.06-3.15.02-.34.02-.68.06-1.03.09-.36.04-.72.08-1.08.13-.17.02-.36.04-.54.07-.36.05-.73.1-1.1.16-.18.02-.37.06-.55.09-.37.06-.73.12-1.1.18-1.39.24-2.72.51-3.83.77-.13.02-.24.06-.36.09-.06,0-.12.02-.17.04-.27.06-.52.13-.76.19-.32.08-.6.16-.84.24-.06.02-.12.04-.17.06-.28.09-.5.17-.62.23-1.23-2.93-2.7-5.59-4.36-8.01-3.04-4.39-6.73-7.97-10.9-10.86-.22-.15-.44-.3-.66-.45-.13-.09-.27-.18-.41-.27-.31-.2-.62-.39-.93-.59-9.82-6.09-21.95-8.72-34.22-9.3-.36-.02-.73-.04-1.1-.05-8.55-.32-17.15.34-25.04,1.51,1.41,1.26,3.88,1.65,6.2,2,.9.14,1.78.28,2.56.47.77.19,1.44.42,1.97.73.17.11.32.23.45.36.08.06.14.13.19.21.17.21.29.45.37.72.02.09.04.18.06.28.03.27.02.56-.04.88-1.83,12.76,2.11,23.02,9.08,30.1.46.47.93.91,1.41,1.35.48.43.97.85,1.48,1.26.32.27.65.52.98.77.46.34.92.67,1.39.99,0,0,0,0,0,0,.47.32.95.62,1.44.92,0,0,0,0,0,0,.73.45,1.48.87,2.24,1.26,0,0,0,0,0,0,1.28.66,2.59,1.25,3.94,1.77.28.11.54.21.82.32,1.37.49,2.76.9,4.17,1.25.57.13,1.14.25,1.72.37.57.11,1.15.21,1.73.3,1.04.16,2.1.28,3.16.36,1.96.14,3.94.14,5.92,0,.48-.03.96-.08,1.45-.13.48-.06.97-.11,1.45-.18.65-.09,1.29-.2,1.93-.32.85-.17,1.7-.36,2.56-.58h0c.68-.18,1.35-.37,2.02-.58.34-.11.67-.22,1.01-.33,1-.34,2-.73,2.97-1.16h0c.65-.29,1.3-.6,1.94-.92h0c.96-.49,1.92-1.01,2.85-1.59,3.43-2.1,6.64-4.77,9.5-8.06,5.29-.43,9.7-3.71,14.82-4.7.13-.12.24-.23.34-.34.06-.06.1-.1.14-.16.17-.19.29-.36.37-.52.02-.04.04-.08.06-.12,0-.02.02-.02.02-.04.11-.33.05-.59-.17-.79Zm46.06,57.51c-.17-.14-.62-.25-1.4-.32h-.03c-1.1-.08-2.86-.08-5.46.05-1.17,0-2.35,0-3.53-.04-.29,0-.59-.02-.88-.03-.42-.02-.84-.04-1.26-.06-.84-.05-1.7-.1-2.54-.18-2.83-.22-5.6-.62-8.14-1.29-.8-.2-1.58-.42-2.34-.67-.32-.1-.62-.21-.93-.32-.24-.09-.49-.18-.73-.28-4.72-1.97-8.21-5.22-9.2-10.52,0-.02,0-.03,0-.05-.45-2.4-.38-5.22.32-8.51v-.02c.02-.09.03-.18.06-.28.88-.28,1.71-.58,2.49-.87.31-.12.6-.24.89-.35.36-.15.72-.29,1.06-.44.23-.09.45-.2.67-.29.74-.34,1.41-.68,2.03-1.02.17-.1.34-.2.5-.29.12-.07.24-.14.36-.21.12-.07.24-.14.35-.22.18-.11.36-.23.52-.34.24-.17.47-.33.68-.5.14-.11.28-.22.4-.33.15-.13.29-.25.43-.38.58-.53,1.01-1.06,1.33-1.58.12-.19.22-.38.3-.56.09-.19.16-.38.21-.56.06-.18.1-.36.13-.54,0-.07.02-.14.02-.21,0-.06,0-.13,0-.18.02-.19,0-.38-.02-.56-.02-.28-.08-.54-.18-.8-.05-.13-.09-.27-.16-.39-.06-.13-.12-.26-.2-.38-.07-.13-.15-.25-.24-.38-.17-.25-.36-.5-.59-.73-.09-.09-.17-.18-.26-.27-.02-.02-.04-.03-.06-.06,0-.02-.02-.03-.04-.04-.93-.88-2.2-1.66-3.7-2.31-.07-.04-.15-.07-.24-.1-.06-.03-.13-.06-.19-.08-.13-.06-.26-.11-.39-.16-.14-.06-.29-.12-.45-.17-.28-.1-.55-.2-.84-.28-.22-.07-.44-.14-.67-.21-.32-.09-.65-.18-.99-.26-.03-.02-.06-.02-.09-.02-.34-.09-.69-.17-1.03-.24-.64-.13-1.29-.24-1.96-.33-.16-.02-.32-.05-.49-.06-.36-.05-.72-.09-1.08-.11-.17-.02-.34-.02-.5-.04-.32-.02-.64-.04-.95-.05-.19,0-.38-.02-.57-.02-4.14-.08-8.43.68-11.93,2.58-1.28.62-2.17,1.31-2.75,2.05-.15.19-.27.37-.37.57-.06.09-.1.19-.14.29-.05.1-.09.2-.12.3-.03.09-.06.2-.09.3-.02.1-.05.21-.06.32-.02.09-.02.18-.03.28-.02.22-.02.44,0,.67.02.13.03.26.06.39,0,.06.02.11.03.16.02.12.05.23.09.34.09.28.2.56.32.84.25.54.59,1.07,1,1.59.08.1.17.21.26.32.09.11.18.21.28.32.13.15.28.31.43.46.22.23.45.45.69.66.24.21.49.43.74.63.09.07.17.14.27.21.19.15.39.3.58.44s.4.28.61.42c.65.43,1.33.84,2.01,1.19.17.09.34.18.5.26.51.24,1.03.47,1.52.66.62.24,1.22.43,1.78.55.08.02.16.04.24.06.27.06.53.1.78.13.13.55.26,1.09.36,1.62.04.17.07.36.09.53.09.51.17,1,.21,1.48.03.25.06.5.07.74.02.1.02.21.02.3.05.68.06,1.33.03,1.96,0,.21-.02.41-.03.62-.02.21-.03.4-.06.6-.03.32-.07.63-.13.94-.02.13-.05.26-.07.39-.02.16-.06.32-.1.47-.05.22-.11.44-.17.65-.06.22-.13.43-.21.64-.04.12-.08.23-.13.34,0,.03-.02.06-.03.08-.1.26-.21.52-.33.77-.36.76-.79,1.46-1.29,2.11-.12.16-.24.31-.36.45-.02.04-.06.08-.09.12-.12.14-.24.28-.37.41-.23.25-.47.49-.73.72-.14.13-.29.26-.44.39-.17.15-.36.29-.54.43-.18.14-.37.28-.57.41-.06.04-.11.08-.17.12-.33.23-.67.44-1.03.64-.17.1-.35.2-.53.29-.06.04-.13.07-.21.1-.25.13-.51.27-.78.39-.29.14-.58.27-.89.39-.32.13-.63.25-.95.37-.05.02-.09.04-.14.06-.34.13-.69.24-1.04.36-.26.09-.52.17-.78.24-.26.08-.53.15-.8.22-.2.06-.39.11-.6.16-.85.21-1.72.39-2.61.56-.49.09-.99.17-1.5.25-.5.08-1.01.15-1.52.21-.44.06-.89.11-1.34.16-.16.02-.32.03-.49.05-.8.09-1.62.16-2.43.21-.39.03-.78.06-1.17.08-.39.02-.78.05-1.17.06-.39.02-.78.04-1.17.06-.77.03-1.54.06-2.3.08-.31,0-.61.02-.92.02-.71.02-1.4.03-2.09.05-.35,0-.69,0-1.03.02-.51,0-1.01.02-1.5.03-.35,0-.69,0-1.03.02-.14,0-.28,0-.43,0-.15,0-.31,0-.47,0-.16,0-.31,0-.46,0,2.49,1.48,5.11,2.33,7.8,2.88.09.02.18.05.27.06,2.73.57,5.52.87,8.27,1.29.02,0,.02,0,.03,0,.25.04.51.08.77.12-4.08,3.4-10.15,2.43-13.58,7.01,24.13-7.6,48.23-7.72,72.45-.32-.11-.18-.23-.35-.37-.5-.05-.06-.09-.12-.15-.17-.59-.65-1.4-1.16-2.3-1.6-.27-.13-.54-.26-.81-.38-.13-.06-.28-.13-.42-.18-.23-.09-.46-.19-.69-.28-1.79-.72-3.57-1.35-4.51-2.26-.09-.09-.18-.19-.25-.28-.06-.08-.12-.16-.16-.24-.02-.02-.03-.03-.03-.05-.02-.03-.04-.06-.05-.09-.03-.05-.05-.1-.07-.16h0c-.02-.06-.04-.11-.05-.17-.02-.03-.02-.07-.02-.1,0-.04-.02-.07-.02-.11-.03-.18-.03-.37,0-.58,1.23-.18,3.29-.57,5.42-1.05,0,0,.02,0,.02,0,2.38-.54,4.85-1.17,6.37-1.74.63-.23,1.1-.45,1.32-.65.17-.14.2-.28.06-.38Zm61.11-11.27s0,0-.02,0c-.22-.15-.53-.23-.82-.3-.48-.46-.99-.86-1.73-.7-.21-.13-.44-.17-.69-.12-.51-.41-1.1-.83-1.75-1.24-.17-.1-.33-.21-.51-.31-.17-.11-.34-.21-.52-.31-.69-.4-1.43-.8-2.23-1.21-.42-.21-.86-.43-1.31-.64-.39-.18-.78-.36-1.18-.54-.51-.23-1.03-.45-1.57-.68-.35-.14-.7-.28-1.06-.43-.39-.16-.78-.32-1.18-.47s-.81-.31-1.22-.46-.83-.3-1.25-.45c-.77-.28-1.55-.54-2.35-.8-.56-.18-1.12-.36-1.7-.54-.41-.13-.82-.25-1.24-.38-.45-.14-.92-.28-1.37-.41-.58-.17-1.18-.35-1.78-.5-.59-.17-1.19-.33-1.8-.49-2.41-.63-4.88-1.21-7.32-1.72-.62-.13-1.22-.25-1.83-.36-.32-.06-.63-.12-.94-.18-.88-.17-1.76-.32-2.63-.47-2.27-.36-4.5-.66-6.63-.88-.43-.04-.86-.08-1.28-.12-.54-.05-1.07-.09-1.59-.12-.15,0-.29-.02-.43-.02-.38-.02-.76-.04-1.12-.06-1.25-.05-2.46-.06-3.61-.03-2.79.08-5.22.4-7.11,1.03-.3.09-.58.21-.86.32,2.54.24,5.07.51,7.58.81,3.78.45,7.52.99,11.24,1.62,1.24.21,2.48.43,3.72.65,1.03.19,2.06.39,3.08.59.37.07.73.14,1.1.22.24.05.47.09.69.14.84.17,1.67.35,2.51.53.62.13,1.23.27,1.84.41.39.09.77.17,1.17.27.83.19,1.66.39,2.49.59.24.06.49.12.73.18,1.25.31,2.49.63,3.72.96.62.17,1.24.33,1.85.5.62.17,1.23.35,1.85.52.62.18,1.23.36,1.85.54.62.18,1.23.36,1.84.56,1.23.38,2.45.77,3.68,1.17.56.18,1.12.37,1.67.56.9.3,1.79.61,2.68.92,1.2.42,2.39.85,3.58,1.29.39.14.78.29,1.18.44.14.47.44.65.8.75,0,0,.02,0,.04.02.26.06.54.09.8.15.03.03.07.06.1.09.07.06.13.11.2.15.25.18.52.22.7.03.03-.03.06-.06.09-.1.03-.04.06-.09.07-.15h0c.15-.43.02-.69-.23-.84Zm1.13-72.56c-.17-.02-.34-.04-.51-.06-3.83-.48-7.83-.87-11.91-1.1-12.7-.75-26.17-.06-37.9,4-.62.21-1.23.43-1.84.66-.32.13-.65.24-.97.38-.15.06-.3.12-.45.18-.27.11-.54.22-.81.34-.29.13-.58.25-.88.39-1.06.47-2.09.99-3.11,1.52,0,0,0,0,0,0-5.65,3.03-10.64,7.11-14.65,12.51-.27.36-.53.73-.79,1.1-.27.4-.54.8-.8,1.22-.28.44-.56.89-.83,1.35-.16.27-.32.54-.47.82-.34.61-.67,1.24-.99,1.88-.35.69-.68,1.4-1,2.13-.77-.14-1.51-.28-2.23-.39-.72-.13-1.41-.24-2.08-.34h0c-.33-.05-.66-.1-.99-.15-.65-.09-1.27-.17-1.86-.25h0c-.6-.08-1.17-.14-1.72-.2-.28-.03-.55-.06-.82-.08-.39-.04-.77-.07-1.14-.09-.12,0-.24-.02-.36-.02-1.02-.07-1.94-.1-2.73-.1-.26,0-.52,0-.76.02-1.32.06-2.23.22-2.71.5-.06.02-.09.06-.13.09-.03.02-.06.04-.08.06-.02,0-.02.02-.03.03-.02.02-.05.06-.06.08-.02.03-.04.07-.06.11,0,.02,0,.04-.02.06-.02.08,0,.17.02.25.02.06.04.11.07.17.06.11.16.22.28.35.07.07.14.13.22.19.06.05.13.1.21.16.21.16.47.32.77.48.12.06.24.13.38.2.43.23.95.46,1.53.7.39.17.82.32,1.28.5.21.08.42.16.64.23.22.08.45.16.69.24.17.06.35.12.52.17.17.06.36.12.54.17,1.44.46,3.1.94,5,1.44.23.06.46.12.69.17.46.12.93.24,1.42.36.65.16,1.32.32,2.01.48,15.09,17.17,42.1,19.02,57.02,4.06.97-.97,1.89-2.01,2.75-3.12.57-.74,1.12-1.51,1.64-2.32,1.55-2.41,2.87-5.12,3.88-8.11.19-.54.37-1.05.53-1.55,1.14-3.6,1.65-7.26,1.66-10.97,0-1.63-.09-3.27-.26-4.92-.05-.4-.06-.76-.04-1.07.07-1.35.76-1.94,2.57-2.2.28-.07.57-.13.87-.2,2.48-.52,5.53-.92,7.73-1.87.2-.08.39-.17.57-.26.2-.1.39-.21.57-.32.02,0,.02-.02.04-.02-.02,0-.04,0-.06,0Zm23.45,57.91c-.02-.13-.03-.26-.05-.39-.03-.24-.08-.48-.13-.72-.75-3.44-3.32-6.61-8.16-10.06-.17-.11-.34-.24-.51-.36-.19-.12-.38-.25-.57-.38-1.75-1.18-3.78-2.39-6.08-3.66-.25-.14-.5-.28-.77-.42.28-.13.56-.25.84-.37.95-.43,1.89-.87,2.77-1.32.29-.14.58-.29.87-.44,1.21-.62,2.33-1.26,3.33-1.92.17-.11.33-.22.49-.32.16-.11.31-.22.47-.33.15-.11.3-.22.44-.33.21-.17.43-.34.63-.5.2-.17.39-.35.58-.51.13-.12.24-.23.36-.35.23-.24.44-.47.64-.7.22-.27.42-.54.6-.82.06-.09.11-.18.17-.28.07-.12.13-.24.2-.37.06-.12.11-.24.17-.36.39-.95.5-1.95.3-3.01-.03-.17-.08-.34-.13-.52h0c-.05-.17-.09-.32-.16-.47-.09-.24-.19-.47-.32-.72-.12-.24-.26-.49-.42-.73t0,0c-.13-.22-.28-.43-.44-.65-.16-.21-.33-.43-.52-.65-.12-.15-.25-.3-.39-.45-.18-.2-.37-.4-.58-.61-.1-.1-.21-.21-.31-.31-.63-.62-1.37-1.26-2.19-1.91-.56-.44-1.17-.89-1.82-1.35-.7-.44-.98-1.01-.98-1.71,0-.08,0-.15,0-.23,0-.06,0-.13.02-.2.16-1.22.94-2.79,1.74-4.76,0-.02,0-.03.02-.05.14-.36.28-.73.42-1.11.03-.06.06-.13.08-.21.1-.29.21-.6.3-.92,0,0,0-.02,0-.02.64-2.01,1.1-4.35.95-7.05-.02-.31-.04-.62-.07-.94-.03-.3-.07-.61-.11-.92,0-.04-.02-.09-.02-.13-.04-.3-.09-.61-.16-.92-.23-1.1-.55-2.25-1-3.46-.2-.53-.42-1.07-.66-1.61h0c-.41-.9-.88-1.83-1.43-2.79-.19-.32-.38-.64-.58-.96-.12-.19-.24-.37-.36-.56-.2-.3-.39-.6-.61-.91-2.47-3.79-2.78-6.41-1.64-10.61,2.94-12.17,4.59-24.59,5.31-37.09,0-.04,0-.07,0-.1,1.05-18.05.16-36.26-1.61-54.16-.06-.59-.11-1.18-.17-1.78,0,0-.02,0-.02,0-.12.06-.23.11-.34.18-.13.07-.24.15-.36.24-.17.12-.32.25-.46.39-.14.14-.27.29-.39.45-.09.13-.18.25-.26.38-.05.07-.09.15-.13.22-.06.12-.13.24-.18.36-.2.39-.36.8-.52,1.22-.17.46-.34.92-.53,1.34-4.21,9.45-8.51,18.86-12.51,28.4-.13.28-.23.54-.31.8-.03.11-.06.21-.08.32-.02.09-.04.18-.06.27-.02.13-.03.24-.04.36-.02.24-.02.47,0,.69,0,.11.02.22.05.33,0,.04,0,.08.02.12,0,.04.02.09.03.13,0,.06.03.13.06.21.04.13.08.24.13.36.05.13.1.24.16.36.02.06.06.13.09.19.03.06.07.13.1.19.21.38.47.74.75,1.1.21.26.44.53.68.79.37.4.77.8,1.18,1.22.13.13.28.28.42.41l.21.21c.07.06.14.13.21.21.53.51,1.07,1.05,1.59,1.62.08.09.17.18.24.28.11.12.21.24.32.36.28.32.54.65.8.99.39.52.75,1.07,1.07,1.64.21.39.41.79.58,1.21.11.26.21.53.3.81.06.16.11.33.15.5,0,.02.02.03.02.06.06.21.11.43.15.64.06.24.09.47.13.73.03.24.06.5.08.76-3.7-.5-6.45-3.53-10.83-3.5,4.9,7.6,9.92,14.66,12.65,23.32-2.97-.45-4.25-3.2-6.86-2.92.11.17.21.36.32.53.03.05.06.09.08.13,1.43,2.43,2.67,4.92,3.69,7.49.09.22.17.43.24.65,1.37,3.56,2.34,7.25,2.84,11.11.03.21.06.42.09.62,1.62,1.93-1.47,2.48-1.27.07-9.59-18.12-26.06-19.39-44.65-14.83,1.85-2.67,3.74-5.12,5.76-7.31.02-.02.04-.04.06-.06,2.51-2.72,5.25-5.02,8.43-6.82.1-.06.21-.12.31-.17.07-.04.13-.08.21-.11.66-.37,1.33-.71,2.04-1.03-.24-.42-.48-.77-.74-1.08-.08-.11-.17-.21-.26-.3-.09-.09-.17-.17-.25-.24-.03-.03-.07-.07-.11-.1-.05-.05-.09-.09-.14-.12-.09-.07-.17-.13-.26-.2-.09-.06-.18-.12-.27-.17-.07-.05-.14-.09-.21-.12-.08-.04-.15-.08-.22-.11-.24-.11-.5-.2-.76-.26-.06-.02-.13-.03-.21-.05-.37-.07-.74-.11-1.13-.11-3.22,0-6.95,2.28-10.04.93-.69.75-1.39,1.51-2.37,2.57-3.97-7-8.7-13.17-13.67-19.15l.13-.07c-.25-.04-.51-.08-.77-.12-.64-.48-1.24-1.01-1.84-1.55-.03-.04-.07-.07-.11-.1-.88-.8-1.74-1.6-2.67-2.27-.02-.02-.03-.03-.06-.04-.94-.68-1.96-1.22-3.12-1.48-.12,5-.58,9.98-1.38,14.9-.02.09-.02.17-.04.25-.63,3.72-1.45,7.41-2.48,11.02,0,.02-.02.02-.02.04-.04.14-.08.28-.12.41h0c-1.49,5.14-3.39,10.15-5.72,14.96-.12.25-.24.5-.37.75-2.48,5.01-5.43,9.8-8.86,14.29-.07.12-.13.23-.21.33-.06.11-.13.21-.21.29-.06.09-.13.17-.21.23-.13.14-.27.25-.41.33-.05.03-.1.06-.16.08-.05.02-.09.04-.15.06-.02,0-.05.02-.08.02-.02,0-.05,0-.07,0-.46.07-.92-.16-1.38-.58-.07-.06-.13-.13-.21-.2-.14-.14-.28-.29-.4-.45-.11-.13-.22-.28-.32-.43-.09-.13-.19-.26-.28-.4-.04-.05-.07-.09-.1-.15-.06-.09-.12-.19-.18-.28-.07-.09-.13-.19-.18-.28-.06-.09-.13-.2-.19-.3-.19-.31-.37-.61-.54-.92-.27-.44-.52-.88-.78-1.31-.06-.12-.13-.23-.21-.34-.07-.12-.14-.24-.21-.35-.07-.12-.14-.23-.22-.34-.43-.65-.85-1.2-1.26-1.54-.08.13-.16.27-.22.4-.15.26-.25.52-.33.78-.06.2-.12.39-.16.59-.03.13-.06.26-.08.39-.11.78-.1,1.53-.21,2.23,0,.09-.02.19-.04.29.22.45.12.83-.26,1.14,0,.11,0,.24-.02.37-.02.22-.05.47-.1.76-.02.13-.05.25-.08.39-.04.2-.09.4-.14.62-.06.21-.12.44-.19.68-.06.23-.14.47-.22.72-.07.24-.16.5-.25.77-.05.13-.09.27-.14.4-.05.14-.09.28-.15.42-.09.26-.2.53-.3.8,0,.02,0,.03-.02.05-.11.28-.22.55-.33.84-.36.9-.77,1.84-1.21,2.79-.1.23-.21.46-.32.69-.11.24-.23.47-.35.72-.07.15-.15.31-.23.47-.1.21-.21.41-.32.62-.13.25-.27.5-.4.76-.02.05-.06.09-.09.15-.13.26-.28.51-.42.77-.09.15-.17.3-.26.45-.21.36-.41.69-.62,1.03-.49.8-.99,1.57-1.51,2.28-.13.18-.26.36-.39.52-.24.32-.48.61-.73.9-.24.28-.48.55-.73.8-.17.19-.36.36-.54.53-.09.08-.17.16-.25.22-.09.09-.19.17-.29.24-.12.09-.23.18-.35.26-.09.07-.18.13-.27.17-.08.06-.17.1-.24.14-.09.05-.17.09-.24.13-.09.04-.17.08-.24.11-.08.03-.16.06-.24.09-.07.02-.13.04-.21.06-.05.02-.1.02-.16.04-.07,0-.14.02-.21.02-.8.09-1.56-.23-2.23-1.06-.77-.81-1.5-1.65-2.19-2.5-.23-.28-.46-.57-.68-.86-.25-.32-.5-.65-.74-.99-.25-.35-.5-.7-.74-1.07-.28-.41-.54-.82-.8-1.24-.26-.41-.51-.83-.76-1.25-.1-.17-.2-.33-.28-.5-.09-.17-.19-.33-.28-.5-.24-.45-.48-.91-.71-1.37-.2-.39-.39-.8-.57-1.21-.25-.56-.49-1.12-.72-1.68-.18-.46-.36-.92-.52-1.39-.05-.13-.09-.24-.13-.37-.09-.25-.17-.5-.25-.75-.2-.61-.39-1.22-.55-1.85-.13-.46-.24-.92-.36-1.39-.14-.59-.28-1.19-.39-1.79-.05-.22-.09-.45-.13-.67-.05-.23-.09-.47-.12-.7,0-.02,0-.03,0-.05-.06-.35-.11-.69-.16-1.04-.17-1.18-.28-2.37-.35-3.59-.17.06-.33.13-.5.24-.04.02-.08.05-.13.08-.31.19-.61.45-.89.76-.08.08-.16.17-.24.25-.08.09-.15.18-.23.28-.12.14-.23.28-.34.44-.11.15-.22.3-.32.47-.22.32-.43.65-.63.99-.08.13-.15.25-.23.38-.19.31-.37.62-.55.92-.1.17-.21.36-.32.52-.11.18-.22.36-.33.54-.1.16-.2.31-.3.46-.21.3-.41.58-.62.81-.09.11-.2.21-.29.31-.13.13-.28.25-.42.36-.47.32-.95.41-1.47.16-.12-.06-.24-.14-.37-.24-.09-.07-.17-.14-.25-.23-.17-.17-.35-.38-.53-.63-.09-.13-.18-.26-.28-.41-1.53-2.14-3.01-4.34-4.41-6.6-.37-.58-.73-1.16-1.08-1.75-.02-.04-.06-.08-.07-.13-1.88-3.16-3.61-6.43-5.1-9.76-.17-.34-.32-.68-.46-1.02-.13-.28-.25-.56-.37-.84-.88-2.04-1.67-4.1-2.37-6.19,0-.02,0-.02,0-.03-.13-.36-.24-.7-.34-1.05h0c-.07-.21-.13-.4-.2-.6-.84-2.29-1.48-4.6-1.97-6.94-.11-.53-.23-1.06-.32-1.58-.62-3.26-1.03-6.56-1.46-9.86,0-.04,0-.07-.02-.11-.05-.41-.1-.83-.16-1.25-.13-.13-.25-.26-.34-.39-.04-.05-.07-.09-.09-.14-.02-.03-.03-.06-.05-.09-.03-.06-.06-.1-.07-.16-.03-.08-.06-.16-.07-.24-.02-.08-.02-.16-.02-.24,0-.37.16-.75.47-1.14h0c-.02-.32-.05-.63-.08-.95-.02-.17-.03-.35-.04-.52-.12-1.36-.22-2.72-.34-4.07-1.62.43-3.19,1.17-4.69,2.15,0,0,0,0-.02,0-1.1.73-2.18,1.58-3.22,2.52-2.79,2.52-5.35,5.73-7.67,9.03,0,0,0,.02-.02.02-2.63,3.73-4.93,7.57-6.86,10.63-1.65-.88-2.26-2.56-3.48-3.89-5.4.32-11.01-.65-15.95,2.55,1.39.39,2.7.89,3.95,1.48.03,0,.06.02.09.04,3.31,1.55,6.16,3.71,8.81,6.22.9.86,1.77,1.75,2.62,2.67,1.07,1.13,2.11,2.3,3.12,3.52.4.47.8.95,1.21,1.43-30.74-2.34-33.16-1.48-45.44,15.8-.05-.26-.08-.54-.09-.82,0-.14-.02-.29-.02-.44-.06-1.39.1-2.97.49-4.73.07-.35.15-.69.24-1.06.06-.27.13-.54.22-.82.74-2.64,1.92-5.61,3.49-8.83.04-.08.09-.16.13-.24.64-1.3,1.35-2.64,2.12-4.02-2.63-.62-3.33,2.79-5.63,2.81-.12-.84-.04-1.81.18-2.83.08-.36.17-.73.28-1.1.1-.37.22-.74.36-1.12.13-.38.28-.77.44-1.15.19-.48.41-.98.64-1.47.13-.29.28-.59.43-.88.28-.59.59-1.18.92-1.77.21-.39.43-.78.65-1.16.1-.19.22-.39.33-.58.22-.38.44-.75.65-1.11.22-.37.44-.73.67-1.09.21-.35.43-.69.64-1.02.42-.67.83-1.3,1.21-1.88.19-.28.36-.56.53-.81.04-.06.09-.12.13-.17.18-.24.38-.47.58-.72.07-.09.13-.17.2-.25.07-.09.13-.17.19-.26.13-.17.24-.35.34-.52.04-.07.08-.15.11-.23.07-.14.13-.29.16-.44,0-.03,0-.06.02-.09.06-.26.06-.52-.03-.8,0-.03-.02-.07-.03-.1-.02-.08-.06-.17-.11-.25-.04-.09-.09-.17-.16-.26-.95-1.31-2.38.25-3.61.43-1.4.21-2.76.67-4.43,1.1-.46-8.9,13.07-10.6,6.99-19.95-5.5-9.59-8.73-20.7-14.78-29.83-.14,1.69-.29,3.38-.43,5.07-.13,1.7-.27,3.39-.39,5.1-.14,1.89-.27,3.8-.39,5.69-.07,1.05-.13,2.1-.2,3.16-.06,1.06-.13,2.11-.17,3.16-.11,2.11-.21,4.21-.28,6.32-.04,1.06-.07,2.11-.1,3.16-.03,1.05-.06,2.11-.08,3.16-.02,1.06-.04,2.11-.05,3.16,0,1-.02,2.01-.02,3.01,0,3.53.06,7.06.2,10.59.02.58.05,1.18.08,1.76.02.59.06,1.18.09,1.76.03.59.06,1.18.1,1.76.03.58.07,1.18.11,1.76,0,.02,0,.04,0,.06.17,2.32.36,4.64.6,6.95.06.59.13,1.18.19,1.77.2,1.74.42,3.48.65,5.21.28,1.94.58,3.87.92,5.8.16.95.33,1.89.51,2.83.36,1.89.76,3.79,1.2,5.67.18.81.38,1.63.58,2.44.6,2.43,1.25,4.84,1.98,7.24,1.02,2.11.71,3-.81,4.54-7.69,7.77-9.22,19-3.97,28.64.76,1.39.95,2.19-.47,3.23-2.89,2.11-4.81,5.18-7.19,7.79-.19.21-.36.41-.48.62-.1.15-.19.31-.26.46-.16.31-.25.61-.29.91-.05.29-.05.58,0,.86.03.27.11.53.22.79.04.09.08.18.13.28.62,1.19,1.88,2.33,3.42,3.37.24.15.48.31.73.47h0c.36.22.73.44,1.1.65.19.11.39.22.58.32.36.2.72.38,1.08.56.19.09.37.19.56.28.17.08.32.16.49.24.24.12.48.23.72.34.48.21.94.43,1.39.62.22.1.43.2.65.28.14.06.28.13.42.18.11.06.22.1.33.14.18.08.36.16.53.23.23.1.45.2.65.28.23.11.44.21.63.29-1,.67-1.95,1.32-2.84,1.94-.6.42-1.18.82-1.73,1.22-.82.6-1.6,1.18-2.33,1.75-.73.57-1.4,1.12-2.02,1.66-.21.17-.42.36-.62.54-.39.36-.77.7-1.12,1.06-7.95,7.84-5.14,13.82,4.37,28.84,1.57,2.53,3.17,2.77,5.76,1.69,9.7-4.06,19.55-7.67,29.76-10.27,1.1-.24,2.56-.59,4.26-.99.41-.1.84-.21,1.29-.31.26-.06.53-.13.8-.19.24-.06.48-.12.73-.17.45-.11.92-.22,1.4-.32l.71-.17c.16-.04.32-.08.5-.12.23-.05.47-.1.71-.16.13-.03.25-.06.38-.09.51-.12,1.04-.24,1.57-.36,1.25-.28,2.53-.55,3.84-.81.31-.07.62-.13.92-.19.5-.1.99-.21,1.49-.3.43-.08.86-.17,1.29-.24,1.07-.2,2.15-.39,3.23-.57.43-.07.85-.14,1.28-.21.43-.07.86-.13,1.29-.2.63-.09,1.26-.18,1.89-.26,4.96-.64,9.56-.86,12.85-.24.58.1,1.12.24,1.62.4.17.06.32.11.48.17.31.12.6.25.86.4.13.07.27.15.39.23.24.16.47.34.66.53-26.65,1.31-51.74,7.76-76.15,17.88.32.26.61.57.89.92.14.17.28.36.42.55.14.19.28.39.4.58.13.21.27.41.39.62.07.1.13.21.2.32.13.21.26.43.39.63.52.85,1.04,1.69,1.61,2.37.14.17.29.33.43.48,1.06,1.07,2.31,1.55,4.01.62,10.9-5.4,22.17-10.49,34.02-13.33,1.1-.44,1.85-.36,2.23-.03.05.04.09.09.13.13s.07.1.09.16c.12.25.1.55-.04.86-.04.09-.09.17-.15.25-.06.09-.13.17-.21.24-.04.04-.09.08-.13.12-.07.06-.15.13-.24.18-.04.02-.09.06-.13.07-.27.17-.59.3-.97.39-9.64,3.03-19.13,6.49-28.28,10.85-7.97,3.7-7.99,3.64-1.45,9.71,3.42-.35,5.82,2.03,8.53,3.39,6.64,3.32,13.63,5.63,20.58,8.1,1.17.41,2.69.56,2.42,2.44,2.87.42,5.74.77,8.62,1.12,7.34.88,14.68,1.64,21.91,2.84.73.12,1.45.24,2.18.38.13.02.24.04.37.06.16.02.32.06.48.09-.3-.13-.46-.2-.46-.2,1.93-.49,3.57.69,5.37.9.53.22,1.06.44,1.59.65,0,0,.02,0,.03,0,4,.95,7.97,2.13,11.87,3.61t.02,0c.28.1.57.21.85.32.04.02.09.03.13.05,6.83,1.55,13.5,1.79,20.07,1.1,1.29-.13,2.56-.3,3.84-.5.03,0,.07,0,.1-.02,6.5-1.04,12.92-2.92,19.33-5.24,1.08-.23,2.17-.45,3.27-.65.18-.04.36-.07.55-.1h0c.19-.03.37-.07.56-.1.11-.02.23-.04.34-.06,4.61-.8,9.31-1.37,14.02-1.93,4.26-.5,8.53-1,12.74-1.63.78-.12,1.56-.24,2.34-.36-.08-1.22.79-1.46,1.71-1.75,11.41-3.02,21.97-8.69,32.95-12.5,2.37-1.91,4.17-4.32,6.36-7.01-11.42-5.25-22.73-9.46-34.52-13.48-1.02-.38-2.75-.78-2.45-2.04.32-1.32,1.36-.77,2.29-.49h.02c.24.07.47.13.68.13.63,0,1.26.28,1.89.46,4.38,1.2,8.64,2.68,12.85,4.32.39.15.78.31,1.18.47,3.81,1.49,7.57,3.11,11.34,4.74,1.82,1.14,3.28,1.99,4.52,2.52.04.02.07.03.1.05,2.88,1.19,4.51.64,6.5-1.85.85-1.06,1.76-2.46,2.86-4.24,0-.35.02-.7.03-1.05-24.52-9.06-49.49-16.18-76.22-16.93.08-.11.17-.21.26-.3.09-.11.19-.2.3-.28.21-.18.45-.34.72-.49h0c.17-.09.35-.18.54-.26.37-.17.79-.3,1.24-.42.23-.06.47-.12.71-.17,9.54-1.94,32.06,3.82,38.53,5.12,11.24,2.69,22.11,6.58,32.93,10.61,1.51.57,3,1.57,4.39-.63.2-.28.39-.55.58-.82.75-1.07,1.46-2.09,2.13-3.08.43-.62.84-1.24,1.24-1.84.39-.6.77-1.18,1.13-1.75.28-.47.57-.92.84-1.36.14-.22.27-.44.39-.66.13-.22.25-.44.38-.65.02-.03.05-.07.06-.11.36-.63.69-1.25,1-1.85.3-.61.58-1.19.83-1.77.17-.39.33-.78.48-1.17.22-.58.41-1.14.57-1.7,0-.02,0-.03.02-.05.1-.36.19-.7.25-1.06,0,0,0-.02,0-.02.08-.36.13-.7.18-1.05.02-.18.04-.36.06-.54.03-.34.05-.67.05-1,0-.38-.02-.75-.06-1.11Z"/>
      <path class="cls-10" d="m102.99,96.44c-3.19-9.16-3.94-18.89-4.55-28.48,43.07-23.11,38.11-.29,41.6,34.81,3.02-34.07-.56-58.59,41.22-34.66-.54,9-1.26,18.07-4.02,26.67-2.98,10.98-8.3,20.79-14.97,29.95-2.71,4.81-5.52-4.48-7.96-6.51-1.3,2.19-.64,3.87-1.3,5.83.12,4.26-9.96,26.89-14.97,20.68-7-7.41-10.84-16.55-11.43-26.75-3.84,1.34-5.64,12.15-9.22,6.42-4.05-5.79-7.83-11.72-10.67-18.21.13-.5-.09-.84-.51-1.07-1.02-2.66-2.03-5.32-3.05-7.98.07-.26.01-.5-.17-.7Z"/>
      <path class="cls-8" d="m113.26,266.06c-.54-.21-1.07-.43-1.59-.65"/>
      <path class="cls-10" d="m220.36,92.25c-3.6-6.35-9.85.14-14.61-1.93,7.29-13.46,16.19-25.96,25.41-38.15,2.69-.31,2.98-.7,1.9-2.49,5.95-8.48,12.94-16.14,19.7-24.82,1.26,3.33,1.12,6.25,1.16,9.15-2.05.93-2.41,3.06-3.18,4.78-4.2,9.45-8.51,18.85-12.5,28.4-2.97,6.37,8.38,8.53,9.03,17.86-3.7-.5-6.45-3.54-10.83-3.5,4.9,7.6,9.92,14.66,12.65,23.31-2.97-.45-4.25-3.19-6.86-2.92-5.03-6.59-10.77-11.79-19.96-10.28-.53-.86-.69-.17-.93.22-.33.12-.65.24-.98.35Z"/>
      <path class="cls-10" d="m72.48,89.23c-5.4.32-11.01-.64-15.95,2.55-1.83-.04-3.66-.08-5.49-.12-.75-.98-1.19-.59-1.52.33-5.37,1.69-8.59,5.98-12.07,9.97-2.62-.62-3.33,2.79-5.63,2.81-.63-5.02,5.09-13.58,7.92-17.97.9-1.22,2.49-2.56,1.38-4.09-.94-1.31-2.38.25-3.61.43-1.4.2-2.76.67-4.43,1.09-.45-8.9,13.08-10.59,6.99-19.95-5.5-9.59-8.73-20.69-14.78-29.82.25-2.83.49-5.66.81-9.29,17.08,20.13,33.93,40.77,46.37,64.06Z"/>
      <path class="cls-10" d="m96.04,68.92c-1.81,1.57-3.61,3.14-5.42,4.71-.89-1.54-2.02-.52-3.1-.33-6.4,1.15-12.04.02-17.18-4.42-16.09-15.16-32.52-31.41-42.73-50.91,18.11,15.83,35.44,31.39,54.41,46.04,3.36,2.6,7.14,3.75,11.29,3.96.99.05,2.17-.34,2.74.96Z"/>
      <path class="cls-10" d="m189.07,73.55c-1.83-1.56-3.67-3.11-5.5-4.67.73-1.41,2.07-.95,3.16-.89,4.78.23,8.66-1.82,12.21-4.67,17.85-13.63,33.94-30.05,51.58-43.57l.23.19c-10.38,15.5-22.72,29.89-35.82,43.2-7.93,8.24-13.44,11.72-25.21,10.6,0,0,.13-.07.13-.07-.09-.21-.18-.43-.27-.64-.17.17-.33.35-.5.52Z"/>
      <path class="cls-10" d="m203.34,260.56c-.07-1.22.79-1.46,1.71-1.75,11.41-3.03,21.97-8.69,32.95-12.5-8.19,11.82-21.33,14.26-34.67,14.25Z"/>
      <path class="cls-10" d="m41.68,246.27c3.42-.35,5.82,2.03,8.53,3.39,6.63,3.33,13.63,5.63,20.58,8.1,1.17.42,2.69.56,2.42,2.44-12.45-.24-24.23-2.01-31.53-13.93Z"/>
      <path class="cls-5" d="m269.63,111.86c-.06-.13-.13-.27-.2-.39,0,0,.02,0,.02,0,.06.13.12.26.17.39Z"/>
      <path class="cls-6" d="m280.89,195.09c-.45,1.88-.95,3.7-1.5,5.48-.08,0-.16.02-.24.02.08-.24.15-.47.21-.71,0-.02.02-.03.02-.06.1-.38.19-.77.27-1.15.02-.07.03-.14.05-.21.04-.19.07-.37.12-.55.11-.52.24-1.04.43-1.54.08-.22.17-.43.28-.65.1-.22.23-.43.37-.64Z"/>
      <path class="cls-6" d="m106.76,264.7c-.17-.03-.32-.06-.48-.09,0-.04.02-.07.02-.11,0,0,.16.07.46.2Z"/>
      <path class="cls-1" d="m233.05,49.68c1.09,1.79.79,2.18-1.9,2.49.63-.83,1.26-1.66,1.9-2.49Z"/>
      <path class="cls-6" d="m173.57,265.69c-1.12.32-2.24.59-3.31.14-.25-.1-.5-.24-.75-.44,1.23-.25,2.32-1.16,3.68-.84h0s.09.02.13.03c0,.02,0,.04,0,.06h0c.06.28.12.56.18.84.02.07.03.14.05.21Z"/>
      <path class="cls-6" d="m251.43,18.27c.1.69-.05,1.28-.68,1.66l-.23-.19c.07-.64.29-1.18.95-1.43l-.04-.04Z"/>
      <path class="cls-6" d="m249.68,188.05l-.76-.54c.28-.13.56-.27.84-.4-.03.31-.05.63-.08.94Z"/>
      <path class="cls-6" d="m251.47,18.32c.07-.19.11-.36.35-.34-.13.1-.26.2-.39.3l.04.04Z"/>
      <path class="cls-5" d="m98.44,67.96c0,.27,0,.54,0,.81-.36-.04-.72-.09-1.09-.13.36-.23.73-.45,1.09-.68Z"/>
      <path class="cls-2" d="m116.59,174.47s0-.02,0-.02c-1.17-3.21-2.66-6.11-4.42-8.73-2.95-4.38-6.66-7.97-10.9-10.86-.22-.15-.44-.3-.66-.45-.13-.09-.27-.18-.41-.27-.31-.2-.62-.39-.93-.59-9.74-5.96-21.95-8.66-34.22-9.3-.36-.02-.73-.04-1.1-.05-8.62-.36-17.25.28-25.04,1.51,1.41,1.26,3.88,1.65,6.2,2,.9.14,1.78.28,2.56.47.77.19,1.44.42,1.97.73.17.11.32.23.45.36.08.06.14.13.19.21.18.21.31.44.37.72.02.09.04.18.06.28.04.27.02.56-.04.88-1.83,12.76,2.11,23.02,9.08,30.1.46.47.93.91,1.41,1.35.48.43.97.85,1.48,1.26.32.27.65.52.98.77.46.34.92.67,1.39.99,0,0,0,0,0,0,.47.32.95.62,1.44.92,0,0,0,0,0,0,.73.44,1.48.87,2.24,1.26,0,0,0,0,0,0,1.28.66,2.59,1.25,3.94,1.77.28.11.54.21.82.32,1.37.49,2.76.9,4.17,1.25.57.13,1.14.25,1.72.37.57.11,1.15.21,1.73.3,1.04.16,2.1.28,3.16.36,1.96.14,3.94.14,5.92,0,.48-.03.96-.08,1.45-.13.48-.06.97-.11,1.45-.18.65-.09,1.29-.2,1.93-.32.85-.17,1.7-.36,2.56-.58h0c.68-.18,1.35-.37,2.02-.58.34-.11.67-.22,1.01-.33,1-.35,2-.73,2.97-1.16h0c.65-.29,1.3-.6,1.94-.92h0c.96-.49,1.92-1.02,2.85-1.59,3.43-2.1,6.64-4.77,9.5-8.06-.37-1.41-.8-2.79-1.28-4.09Zm-35.1-14.65c.02-.1.03-.21.06-.31,0-.06.02-.11.03-.17s.03-.1.04-.16c.03-.12.06-.24.1-.36.02-.08.05-.15.08-.23.09-.28.21-.54.35-.79.16-.29.34-.58.55-.84.1-.13.22-.26.33-.39.24-.24.5-.47.78-.67.28-.2.59-.37.92-.51.1-.05.21-.09.33-.13.06-.02.11-.04.17-.06.02,0,.05-.02.07-.02.16-.05.32-.09.48-.12.19-.04.39-.07.58-.09.22,0,.43.02.63.06.17.02.33.05.49.09.1.02.2.05.29.08,0,0,.02,0,.02,0,0,0,.02,0,.02,0,.02,0,.02,0,.04,0,.09.02.19.06.28.09.72.26,1.33.65,1.83,1.13.05.04.09.08.13.13.09.08.17.17.24.25.22.26.43.54.6.84.17.32.32.64.43.97.04.1.07.2.09.3.03.09.06.2.08.3.03.14.06.28.09.43.03.16.05.32.06.5.02.18.02.37.02.56,0,.13,0,.27-.02.4-.02.14-.03.28-.06.42-.06.32-.13.62-.24.92-.21.59-.53,1.14-.96,1.63-.21.23-.45.45-.73.65-.13.1-.28.19-.43.28s-.3.17-.47.24c0,0-.02,0-.03.02-.15.06-.32.13-.48.18-.16.06-.33.09-.5.13-.05.02-.1.02-.16.03-.02,0-.05.02-.07.02-.07.02-.15.03-.23.04-.02,0-.05,0-.07,0-.06.02-.11.02-.17.03h-.04c-.17.02-.36.03-.54.04-.22,0-.43-.02-.63-.04-.17-.02-.34-.04-.49-.07-.02,0-.02,0-.04,0-.06,0-.13-.02-.19-.04-.14-.02-.28-.06-.42-.1-.17-.06-.35-.11-.5-.19-.16-.06-.32-.14-.46-.23-.29-.16-.56-.36-.8-.57-.12-.1-.24-.21-.33-.33-.11-.12-.21-.24-.3-.36-.09-.13-.18-.26-.25-.39-.09-.13-.16-.27-.21-.41-.04-.09-.09-.19-.12-.29-.02-.06-.04-.12-.06-.17-.06-.15-.1-.32-.14-.47v-.02c-.03-.13-.06-.25-.08-.39-.02-.12-.04-.24-.05-.36,0-.06,0-.12-.02-.17-.03-.44,0-.88.06-1.32Zm28.23,17.35v.05c-.02.2-.05.38-.09.56-.02.09-.06.18-.09.28-.14.41-.38.79-.73,1.13-13.78,11.13-33.77,10.75-44.82-2.39-.93-1.11-1.81-2.31-2.6-3.61-.6-.97-1.15-2-1.66-3.07l-.24.07.22-.08c-.06-.32-.21-.65-.38-.98,0,0,0-.02,0-.02-.19-.39-.39-.77-.5-1.11h0c-.06-.18-.08-.34-.06-.49-.14-.45-.28-.91-.42-1.36-.1-.32-.21-.64-.3-.96-.29-.24-.44-.56-.52-.91,0,0,0,0,0,0t0-.02c-.21-.85.02-1.91-.37-2.75h-.16s.13-.06.13-.06c.05-.35.07-.74.06-1.17-.03-2.09-.58-5.03-.35-7.23,0-.02,0-.03,0-.05.15-1.32.58-2.36,1.61-2.77t.02,0c.62-.24,1.46-.26,2.57.04,1.37-.02,2.74.03,4.1.14,1.6.11,3.2.29,4.8.5.39.06.8.11,1.19.17h.03c1.36.19,2.71.4,4.06.6.47.07.92.14,1.39.21.33.05.66.09.99.14.47,0,.82.15,1.07.4.17.17.28.39.36.65.02.07.04.13.06.21.02.07.03.15.05.23.08.49.09,1.09.06,1.77-.02.38-.06.78-.09,1.21,0,.04,0,.09,0,.13-.02.24-.05.5-.07.76-.04.36-.07.74-.1,1.14-.18,2.17-.31,4.72.13,7.39.02.11.04.23.06.34.14.8.34,1.63.61,2.44.13.43.29.86.47,1.29.39,2.84,1.84,5.79,3.79,8,0,0,0,.02,0,.02,2.09,2.37,4.76,3.89,7.31,3.53,1.99-.28,3.91-1.68,5.45-4.7.77-1.28,1.36-2.63,1.82-4.01,0,0,0-.02,0-.02,1.03-3.03,1.49-6.25,2.18-9.41.26-.48.47-.38.67.05.49.66,1.25,1.57,2.11,2.63.32.39.66.8,1.01,1.24s.7.88,1.05,1.33c.24.31.47.62.69.93.12.16.23.32.34.47.34.47.66.95.97,1.43.31.48.59.95.84,1.43.08.16.17.32.24.48.24.47.44.93.6,1.38.12.34.21.66.28.99,0,.04.02.08.02.11.09.4.13.8.11,1.17,0,.06,0,.11,0,.17Z"/>
      <path class="cls-2" d="m229.31,144.41c-12.73-.62-26.2.02-37.9,4-.62.21-1.23.43-1.84.66-.32.13-.65.24-.97.38-.15.06-.3.12-.45.18-.27.11-.54.22-.81.34-.29.13-.58.25-.88.39-1.06.47-2.1.98-3.11,1.52,0,0,0,0,0,0-5.65,3-10.66,7.07-14.65,12.51-.27.36-.53.73-.79,1.1-.27.4-.54.8-.8,1.22-.28.44-.56.89-.83,1.35-.16.27-.32.54-.47.82-.34.61-.67,1.24-.99,1.88-.35.69-.68,1.4-1,2.13-.51,1.85-1.03,3.71-1.53,5.56,15.09,17.17,42.1,19.02,57.02,4.06.97-.97,1.89-2.01,2.75-3.12.58-.74,1.12-1.51,1.64-2.32,1.55-2.41,2.87-5.12,3.88-8.11.19-.54.37-1.05.53-1.55,1.57-4.88,1.8-8.38,1.66-10.97-.13-2.94-.73-4.71-.3-5.99.33-.99,1.25-1.68,3.44-2.4,1.7-.56,4.17-1.14,7.73-1.87.18-.03.36-.07.55-.11,0-.05,0-.1.02-.15,0-.14.02-.28.04-.42,0-.07,0-.14.02-.21-3.85-.38-7.85-.7-11.93-.89Zm-41.68,15.24s0-.02,0-.04c.02-.17.05-.34.08-.5.22-1.14.83-2.2,1.89-2.96.32-.24.69-.46,1.1-.63.06-.02.11-.05.17-.07.11-.05.22-.09.34-.13,6.27-1.93,9.75,6.75,3.46,10.2-.15.03-.29.06-.43.09-.13.02-.25.05-.37.06-.24.03-.47.06-.69.06-.11,0-.22,0-.33,0-.43-.02-.84-.07-1.23-.18-.2-.05-.39-.11-.57-.18-.17-.07-.35-.14-.5-.22,0,0-.02,0-.02-.02-1.85-.97-2.9-2.98-2.9-4.97,0-.17,0-.34.03-.5Zm33.4,8.35s0,0,0,.02c-.04.1-.08.22-.13.32h0c-.15.4-.31.77-.48,1.15-.35.78-.72,1.54-1.11,2.26-.02.05-.05.09-.07.13-1.68,3.06-3.8,5.68-6.23,7.84-.16.14-.32.28-.47.42-6.3,5.38-14.61,7.8-23.02,6.88-.32-.03-.63-.08-.95-.13-6-.83-12.02-3.37-17.36-7.76-.1-.09-.19-.17-.28-.26-.17-.17-.32-.36-.43-.57-.06-.09-.12-.19-.16-.3-.04-.09-.07-.18-.09-.27-.03-.08-.06-.17-.07-.24-.02-.06-.03-.12-.05-.18,0-.06-.02-.12-.02-.18,0-.03,0-.07,0-.1,0-.07-.02-.14-.02-.22-.02-.17,0-.34,0-.52,0-.06,0-.12.02-.17v-.02c0-.1.02-.2.05-.31,0-.07.02-.15.05-.22.02-.15.06-.31.11-.47.04-.15.09-.3.14-.46.03-.09.06-.2.1-.3.05-.13.09-.25.16-.38.07-.17.15-.36.24-.54.06-.13.12-.26.2-.39.17-.33.36-.67.56-1.01.19-.33.39-.65.61-.98.12-.17.23-.33.35-.5.1-.16.22-.32.35-.49.22-.32.47-.65.73-.98.11-.16.24-.32.37-.48.38-.48.76-.95,1.14-1.41.24-.31.5-.6.76-.89,1.25-1.46,2.41-2.71,3.16-3.58.17.57.31,1.17.45,1.78.14.61.28,1.23.41,1.87.17.77.32,1.56.5,2.35.09.39.17.79.26,1.18.04.17.08.34.12.5.06.26.13.52.19.77.13.54.28,1.06.43,1.57.09.3.18.6.28.89.3.91.65,1.78,1.07,2.59.04.07.07.14.11.21.15.29.32.58.5.84.11.18.23.36.35.52.29.42.62.81.97,1.17.09.09.18.18.28.27.22.22.46.42.7.59.15.12.3.22.46.32.19.14.39.25.59.36.08.05.16.09.24.13.21.11.42.21.64.28.07.03.16.07.24.09.33.13.67.23,1.03.31.07.02.14.04.21.06.02,0,.04,0,.06,0,.06.02.13.03.19.04.21.05.43.08.66.11.37,0,.73-.03,1.07-.07.13-.02.26-.04.39-.06.08,0,.16-.02.24-.05.1-.02.21-.04.31-.07.09-.02.2-.06.3-.09.19-.06.39-.13.58-.2.17-.07.35-.15.52-.23.28-.13.54-.29.8-.46.13-.08.26-.17.38-.26.16-.12.31-.24.46-.37.2-.17.39-.35.58-.54.13-.13.26-.28.39-.43.09-.1.17-.21.26-.32.09-.1.17-.21.25-.32.17-.23.33-.47.49-.72.03-.05.06-.09.09-.14.15-.24.3-.5.43-.75.16-.28.3-.58.44-.87.55-1.17.99-2.41,1.37-3.63.09-.3.17-.6.26-.9,0-.02.02-.06.02-.08.02-.04.02-.08.03-.12.39-1.08.65-2.07.88-3.02h0v-.02c.65-2.88.71-5.24.56-7.19,0-.06,0-.12,0-.17-.28-3.03-1.01-5.06-.66-6.45v-.02s0-.02,0-.02c0,0,0-.02,0-.02t0-.02s0,0,0,0c.28-.99,1.12-1.66,3.12-2.16.03,0,.06-.02.09-.02,1.15-.29,2.67-.52,4.68-.73h.07c1.99-.09,3.75-.28,5.29-.46h.02c.85-.1,1.63-.21,2.35-.31h.03c1.91-.24,3.38-.41,4.48-.26h0c1.3.19,2.08.82,2.43,2.32,0,0,0,.02,0,.03.36,1.51.28,3.91-.12,7.59,0,.02,0,.06,0,.09-.06.44-.1.91-.16,1.39h0c-.05.36-.09.71-.13,1.07-.41,1.96-.95,3.8-1.63,5.55Z"/>
      <path class="cls-2" d="m222.26,91.68c17.07-2.24,25.29,16.85,27.22,30.81-.42.02-.85.05-1.27.07-9.59-18.12-26.06-19.4-44.65-14.83,5.21-7.3,10.56-13.56,18.7-16.06Z"/>
      <path class="cls-2" d="m51.03,91.66c11.05-.9,18.53,7.48,25.28,15.48-30.74-2.34-33.17-1.48-45.44,15.79-1.34-7.96,7.79-29.21,20.16-31.27Z"/>
      <path class="cls-4" d="m143.41,206.88c-.11-.5-.23-1.01-.34-1.51.32-.57-.27-.95-.55-.24-3.58,4.81-4.77-2.3-5.91,1.82-6.15-.73-18.25-9.78-8.65-14.4,15.09-8.2,44.64,4.85,15.45,14.32Z"/>
      <path class="cls-2" d="m236.84,217.62c-18.98-7.16-38.53-11.16-58.85-13.06,11.38-4.92,49.23,4.35,59.36,12.45-.17.2-.34.41-.51.61Z"/>
      <path class="cls-2" d="m100.73,204.48c-19.09,1.92-37.76,5.71-55.72,12.64-.23-.4-.46-.8-.7-1.2,17.11-9.16,37.12-13.66,56.45-12.32-.01.3-.02.59-.03.89Z"/>
      <path class="cls-10" d="m163.79,172.91c-.51,1.85-1.02,3.71-1.53,5.56-23.37-5.41-20.42-9.64,1.53-5.56Z"/>
      <path class="cls-10" d="m117.86,178.56c-.73-1.53-1.27-3.11-1.34-4.83,1.68-.91,21.76-4.99,16.16.13-5.13.99-9.52,4.27-14.82,4.7Z"/>
      <path class="cls-5" d="m239.67,218.96c.03-.38.07-.75.1-1.13,1.65-.03,1.27,2.43-.1,1.13Z"/>
      <path class="cls-5" d="m98.89,74.3l.16,2.4c-.79-.75-.86-1.55-.16-2.4Z"/>
      <path class="cls-6" d="m178.12,230.46c0-.46-.02-.91-.03-1.37,1.86-.89,1.9,1.43.03,1.37Z"/>
      <path class="cls-2" d="m45.01,217.11c-.83.56-1.82.66-2.77.89-.05-1.44,1.18-1.6,2.07-2.09.23.4.46.8.7,1.2Z"/>
      <path class="cls-6" d="m42.24,218c.64-.14,1.29-.29,1.93-.43-.55.58-1.15.91-1.93.43Z"/>
      <path class="cls-5" d="m127.02,122.19c.09.36.17.71.26,1.07-.09-.36-.17-.71-.26-1.07Z"/>
      <path class="cls-2" d="m238.04,217.13c0,.3,0,.61,0,.91-.4-.14-.8-.28-1.19-.42.17-.2.34-.4.51-.61.24-.05.47,0,.69.12Z"/>
      <path class="cls-6" d="m41.43,218.2c-.07.13-.16.28-.25.43-.38-.21-.14-.42,0-.7.08.08.15.17.25.27Z"/>
      <path class="cls-5" d="m153.02,124.05c.09-.38.17-.76.26-1.13.22.45.12.82-.26,1.13Z"/>
      <path class="cls-2" d="m189.07,73.55l.5-.52c.09.21.18.43.27.64-.26-.04-.52-.08-.77-.12Z"/>
      <path class="cls-1" d="m222.26,91.68c-.31.07-.62.14-.93.22.24-.38.4-1.07.93-.22Z"/>
      <path class="cls-1" d="m51.03,91.66c-.51.11-1.01.22-1.52.33.33-.93.77-1.32,1.52-.33Z"/>
      <path class="cls-9" d="m109.62,175.84s-.02-.07-.02-.11c-.06-.32-.17-.65-.28-.99-.17-.45-.36-.92-.6-1.38-.08-.17-.17-.32-.24-.48-.26-.47-.54-.95-.84-1.43-.31-.48-.63-.95-.97-1.43-.11-.16-.22-.32-.34-.47-.23-.32-.46-.62-.69-.93-.35-.46-.7-.9-1.05-1.33s-.69-.84-1.01-1.24c-.87-1.06-1.63-1.96-2.11-2.63-.18.07-.5.05-.67-.05-.25,3.24-1.03,6.53-2.18,9.41,0,0,0,.02,0,.02-1.74,4.38-4.36,7.82-7.27,8.71-2.33.72-4.86-.19-7.31-3.53,0,0,0,0,0-.02-1.02-1.39-2.02-3.2-2.99-5.48l-.14-.02.14-.04c-.27-.82-.53-1.65-.8-2.47-.62-.32-.61-.79-.47-1.29.02-.08.05-.16.07-.24-.3-.72-.52-1.46-.68-2.2-.02-.11-.05-.23-.06-.34-.5-2.53-.34-5.13-.13-7.39.03-.39.06-.77.1-1.14.02-.26.05-.51.07-.76,0-.04,0-.09,0-.13.03-.43.06-.83.09-1.21.03-.68.02-1.28-.06-1.77-.02-.08-.03-.16-.05-.23-.02-.07-.03-.13-.06-.21-.09-.26-.2-.48-.36-.65-.24-.26-.58-.4-1.07-.4-.64.28-1.25.34-1.77-.24-.21-.03-.41-.07-.62-.1-1.35-.23-2.69-.45-4.04-.67l-.02.07-.02.09v-.09s0-.08,0-.08c-.39-.03-.8-.06-1.19-.09-1.37-.11-2.74-.21-4.11-.31-1.61.15-3.24.47-4.79-.34-1.1-.35-1.94-.33-2.57-.04t-.02,0c-.92.44-1.4,1.46-1.61,2.77,0,.02,0,.03,0,.05-.32,2.09.02,4.89.35,7.23.18,1.38.36,2.6.38,3.4.25.3.4.62.5.99,0,0,0,.02,0,.05.12.45.17.94.26,1.43.09.47.2.94.42,1.36.16.24.53.39.18.64.13.32.25.64.38.96,0,0,0,.02,0,.02.13.32.25.65.38.98h.02c.51,1.08,1.07,2.11,1.66,3.08.8,1.29,1.66,2.49,2.6,3.61,11.05,13.14,31.04,13.52,44.82,2.39.35-.34.58-.72.73-1.13.03-.09.06-.18.09-.28.05-.18.07-.36.09-.56v-.05c0-.06,0-.11,0-.17.02-.37-.03-.77-.11-1.17Zm-37.46-3.72c-.06-1.82,1.03-2.56,2.83-2.5,1.55-.11,2.82.26,2.98,2.19.6,3.68-5.92,3.79-5.82.32Z"/>
      <path class="cls-1" d="m86.53,165.74c-7.14-.09-6.42-10.17-.15-10.75,6.75.23,7.44,10.51.15,10.75Z"/>
      <path class="cls-6" d="m57.58,163.68c.52.39.57.93.47,1.51-.71-.33-.51-.95-.47-1.51Z"/>
      <path class="cls-6" d="m80.2,169.96c-.72-.36-.6-.93-.4-1.53.13.51.27,1.02.4,1.53Z"/>
      <path class="cls-6" d="m77.62,152.03c-.64.29-1.25.34-1.76-.25.59.08,1.18.17,1.76.25Z"/>
      <path class="cls-6" d="m58.77,167.51c.15.23.52.39.18.63-.13-.22-.44-.4-.18-.63Z"/>
      <polygon class="cls-6" points="59.71 170.11 59.73 170.12 59.49 170.19 59.71 170.11"/>
      <polygon class="cls-6" points="57.14 161.45 57.16 161.5 57 161.51 57.14 161.45"/>
      <polygon class="cls-6" points="71.19 151.01 71.16 151.17 71.15 151 71.19 151.01"/>
      <polygon class="cls-6" points="81 172.49 80.86 172.48 81 172.44 81 172.49"/>
      <path class="cls-6" d="m101.44,163.42c-.18.07-.5.04-.67-.05.26-.48.48-.38.67.05Z"/>
      <path class="cls-7" d="m222.64,162.45c-.57,1.95-1.14,3.91-1.71,5.86-.52.29-.82.66-.49,1.28-10,20.15-32.17,22.75-49.26,9.55-4.37-3.62,5.05-13.03,7.95-16.43,2,7.04,2.05,17.65,10.93,18.8,5.93-.04,8.23-5.72,9.59-10.48.51-.31,1.02-.61,1.53-.92.12,4.43.46,4.75,4.58,4.3.41.03.62-.15.6-.57.76-2.21.64-3.96-2.24-4.26-.89-.69-1.73-.37-2.55.15-.86-.48-.7-1.46-1.08-2.17,3.41-18.59-8.74-14.28,16.57-17.28,5.99-.72,6.04-.71,6.1,5.14.02,1.96-.21,3.93-.33,5.9-.45.31-.48.69-.2,1.12Z"/>
      <path class="cls-1" d="m193.83,165.7c-6.89.63-8.54-8.42-2.64-10.38,6.27-1.92,9.75,6.75,3.46,10.21-.37-.4-.62-.2-.82.18Z"/>
      <path class="cls-6" d="m201.19,170.11c-.51.31-1.02.61-1.53.92.28-1.15.56-2.31.84-3.46.37.77.27,1.77,1.18,2.26-.17.08-.34.18-.5.29Z"/>
      <path class="cls-6" d="m220.45,169.59c-.33-.61-.04-.99.49-1.28-.16.43-.32.85-.49,1.28Z"/>
      <path class="cls-6" d="m222.64,162.45c-.28-.44-.25-.82.2-1.12-.07.37-.13.75-.2,1.12Z"/>
      <path class="cls-6" d="m208.46,150.99h-.08s.08,0,.08,0Z"/>
      <path class="cls-5" d="m193.83,165.7c.2-.38.45-.58.82-.18-.27.06-.55.12-.82.18Z"/>
      <path class="cls-6" d="m142.52,205.13c.28-.71.88-.33.55.24,0,0-.33,0-.33,0l-.22-.24Z"/>
      <path class="cls-1" d="m163.86,233.63c-.2.54-.45.72-.77.08.26-.03.51-.05.77-.08Z"/>
      <path class="cls-1" d="m74.99,169.62c1.55-.11,2.82.26,2.98,2.18.6,3.69-5.92,3.78-5.82.31-.05-1.82,1.04-2.56,2.84-2.5Z"/>
      <path class="cls-1" d="m201.19,170.11c3.36-1.76,7.72.89,4.58,4.3-4.13.45-4.47.12-4.58-4.3Z"/>
      <path class="cls-5" d="m204.13,169.59c-.82.08-1.63.16-2.45.23l-.1-.08c.82-.52,1.66-.84,2.55-.15Z"/>
      <path class="cls-5" d="m205.78,174.42c.2-.19.4-.38.6-.57.02.42-.19.6-.6.57Z"/>
      <path class="cls-2" d="m109.03,219.97c4.38,3.83,9.81,3.45,15.15,3.66,8.09,1.37,12.27-5.16,14.2-12.16.73-2.55,1.23-5.23,1.56-8.1,1.24,2.62,1.8,5.56,1.82,8.54.21,10.48-7.52,19.74-18.63,16.67-3.76-.33-12.58-2.68-14.11-8.61h0Z"/>
      <path class="cls-2" d="m171.15,219.97c-1.54,5.93-10.34,8.28-14.11,8.61-11.11,3.07-18.84-6.2-18.63-16.67.02-2.97.58-5.91,1.82-8.54.33,2.87.83,5.55,1.56,8.1,1.94,7,6.12,13.53,14.2,12.16,5.34-.2,10.77.18,15.15-3.66h0Z"/>
    </g>
  </g>
</svg>