<?xml version="1.0" encoding="UTF-8"?>
<svg id="Layer_1" data-name="Layer 1" xmlns="http://www.w3.org/2000/svg" xmlns:xlink="http://www.w3.org/1999/xlink" viewBox="0 0 1920 1080">
  <defs>
    <style>
      .cls-1 {
        fill: none;
      }

      .cls-2 {
        fill: url(#paw);
      }
    </style>
    <pattern id="paw" x="0" y="0" width="200" height="200" patternUnits="userSpaceOnUse" viewBox="0 0 200 200">
      <g>
        <rect class="cls-1" width="200" height="200"/>
        <path d="m72.27,67.47c-6.04,8.76-6.7,14.87-4.34,16.81l1.28,1.08c5.84,3.26,12.84,1.76,18.19-6.48,5.8-8.94,5.52-15.65,2.32-18.33-6.72-1.34-13.08.58-17.45,6.92Z"/>
        <path d="m61.15,117.19c4.74,3.85,8.9,7.31,11.78,10.71,7.04,8.32,9.99,12.72,11,13.55,4.4,3.7,9.23,3.01,14.45-1.97l1.58-1.92c1.12-12.84.94-19.56.92-20.58-.08-13.58,7.32-19.82,3.16-23.24-3.52-2.9-7.4-2.42-12.51-1.68-16.95,2.4-28.95-.1-34.15,5-5.12,5.02-4.46,13.44,3.78,20.13Z"/>
        <path d="m143.12,79.07c-9.06-2.06-16.62.62-22.71,7.98l-1.58,1.94c-4.52,6.9-4.78,11.96-.84,15.19l1.28,1.08c9.08,1.13,16.61-1.94,22.59-9.16,4.68-5.66,5.28-11.18,1.8-16.61l-.54-.42Z"/>
        <path d="m131.88,127.61l1.58-1.93c1.9-2.27,2.24-4.91,1.04-7.81l-1.92-1.61c-6.52-5.39-15.87-4.74-25.39,4.88-2.08,2.1-1.96,5.4-.28,9.32,6.8,5.63,15.11,4.65,24.97-2.86Z"/>
        <path d="m125.41,71.83c2.98-3.58,3.54-8.62-.68-13.39-4.1-4.66-13.05-2.04-22.65,7.98-5.8,6.04-6,12.38-1.92,17.81l.66.52c6.28,3.62,12.53,1.66,18.81-5.94l5.78-6.98Z"/>
      </g>
    </pattern>
  </defs>
  <rect class="cls-2" width="1920" height="1080"/>
</svg>